<svg width="17" height="14" viewBox="0 0 17 14" fill="none" xmlns="http://www.w3.org/2000/svg">
<path fill-rule="evenodd" clip-rule="evenodd" d="M0 1C0 0.447715 0.447715 0 1 0H16C16.5523 0 17 0.447715 17 1C17 1.55228 16.5523 2 16 2H1C0.447715 2 0 1.55228 0 1Z" fill="#35383F"/>
<path fill-rule="evenodd" clip-rule="evenodd" d="M0 7C0 6.44772 0.447715 6 1 6H16C16.5523 6 17 6.44772 17 7C17 7.55228 16.5523 8 16 8H1C0.447715 8 0 7.55228 0 7Z" fill="#35383F"/>
<path fill-rule="evenodd" clip-rule="evenodd" d="M4 13C4 12.4477 4.44772 12 5 12L16 12C16.5523 12 17 12.4477 17 13C17 13.5523 16.5523 14 16 14H5C4.44772 14 4 13.5523 4 13Z" fill="#35383F"/>
</svg>
